<svg width="20" height="25" viewBox="0 0 20 25" fill="none" xmlns="http://www.w3.org/2000/svg">
<g clip-path="url(#clip0_837_86)">
<mask id="mask0_837_86" style="mask-type:luminance" maskUnits="userSpaceOnUse" x="0" y="0" width="20" height="25">
<path d="M20 0H0V25H20V0Z" fill="white"/>
</mask>
<g mask="url(#mask0_837_86)">
<path fill-rule="evenodd" clip-rule="evenodd" d="M1.24625 8.16289C4.25341 10.971 9.84 16.9571 9.84 16.9571L10.0082 16.7879L16.2782 22.9188L16.1041 23.0865L16.454 23.4287L18.4615 23.9565L18.6859 23.7326L18.9104 23.5085L18.3518 21.5328L18.0018 21.1907L17.8324 21.358L11.5686 15.2271L11.7368 15.0579C11.7368 15.0579 5.62046 9.60744 2.74795 6.66089C2.74795 6.66089 2.01405 6.85698 1.74767 7.16827C1.43722 7.43402 1.24625 8.16289 1.24625 8.16289Z" fill="url(#paint0_linear_837_86)"/>
<path fill-rule="evenodd" clip-rule="evenodd" d="M16.1042 23.0866L15.9062 23.1073C15.9062 23.1073 12.6915 19.4663 9.75693 17.0951C9.75693 17.0951 10.3398 15.9899 11.8129 14.9308C11.8129 14.9308 15.0291 18.4567 18.0627 21.0416L18.0025 21.1816C18.0025 21.1816 16.7297 22.6301 16.1042 23.0866Z" fill="url(#paint1_linear_837_86)"/>
<path fill-rule="evenodd" clip-rule="evenodd" d="M18.5297 23.8968L18.8631 24.2229C18.9057 24.2582 18.9606 24.2755 19.0158 24.2712C19.071 24.267 19.1222 24.2414 19.1583 24.1999C19.1995 24.1637 19.2248 24.1127 19.2286 24.0582C19.2324 24.0036 19.2145 23.9495 19.1787 23.9076L18.8461 23.5786L18.5297 23.8968Z" fill="url(#paint2_radial_837_86)"/>
<g style="mix-blend-mode:multiply" opacity="0.5">
<path fill-rule="evenodd" clip-rule="evenodd" d="M9.74561 16.8523C9.74561 16.8523 10.4464 15.5602 11.4781 14.8214L11.6932 15.0247C11.6932 15.0247 10.392 15.8848 9.8473 16.9526L9.74561 16.8523Z" fill="#614881"/>
</g>
<path style="mix-blend-mode:screen" opacity="0.5" fill-rule="evenodd" clip-rule="evenodd" d="M1.38333 7.7573C1.49828 7.50817 9.64053 15.9476 9.85103 16.1438C10.0615 16.34 9.82677 16.7032 9.82677 16.7032C10.0375 16.3712 10.2672 16.0514 10.5146 15.7453C10.5146 15.7453 10.1359 16.0369 9.96931 15.9478C9.80285 15.8587 1.72954 7.76302 1.65976 7.61919C1.58997 7.47537 1.68682 7.22363 1.68682 7.22363C1.56275 7.3877 1.46074 7.56709 1.38333 7.7573Z" fill="url(#paint3_linear_837_86)"/>
<path fill-rule="evenodd" clip-rule="evenodd" d="M2.69524 9.56142C3.05488 8.95114 3.56447 8.44098 4.17711 8.07794L4.08944 7.99158C3.44802 8.31514 2.92634 8.82993 2.59775 9.46357L2.69524 9.56142Z" fill="url(#paint4_linear_837_86)"/>
<path style="mix-blend-mode:screen" opacity="0.5" fill-rule="evenodd" clip-rule="evenodd" d="M16.4601 23.43C17.2746 23.0041 17.9369 22.3417 18.3585 21.5312L18.9171 23.5072L18.4686 23.9535L16.4601 23.43Z" fill="url(#paint5_linear_837_86)"/>
<path fill-rule="evenodd" clip-rule="evenodd" d="M15.5814 22.4721C15.7612 22.3848 15.9228 22.2654 16.0583 22.1198L11.8087 17.9576L11.4668 18.2993C11.4668 18.2993 13.8399 20.7338 15.5814 22.4721Z" fill="url(#paint6_linear_837_86)"/>
<path fill-rule="evenodd" clip-rule="evenodd" d="M15.6773 22.4219L13.6909 20.4811L13.7275 20.3218L13.5636 20.3565L11.512 18.2591L11.8074 17.9637L16.0583 22.12C15.9551 22.247 15.8251 22.35 15.6773 22.4219Z" fill="#9F2E45"/>
<g style="mix-blend-mode:multiply">
<path fill-rule="evenodd" clip-rule="evenodd" d="M11.8074 17.9637L13.828 20.0739L13.5651 20.3568L13.726 20.3214L13.6908 20.4812L13.9758 20.1973L16.0583 22.12L11.8074 17.9637Z" fill="#614881"/>
</g>
<path d="M16.4202 3.35158C16.4202 3.35158 8.92149 10.6216 6.52205 12.7589C4.68967 14.3358 2.70174 15.7258 0.579259 16.9141L0.56861 16.9233C0.52286 16.9445 0.469099 16.9488 0.41499 16.9358C0.360869 16.9228 0.30916 16.8931 0.26721 16.8509C0.22526 16.8086 0.1952 16.7561 0.18132 16.7007C0.16744 16.6453 0.170439 16.5899 0.189889 16.5423C0.195599 16.5245 0.204049 16.5081 0.214979 16.4938C0.214979 16.4938 2.63678 13.0568 4.98972 10.9821C7.34269 8.90738 15.5087 2.31259 15.5087 2.31259C15.5508 2.29169 15.5988 2.2819 15.6491 2.28396C15.6993 2.28602 15.7505 2.29987 15.7987 2.32447C15.9467 2.3976 16.0818 2.50273 16.1934 2.63145C16.3049 2.76018 16.3898 2.90893 16.4411 3.06582C16.459 3.11587 16.4664 3.16743 16.4627 3.21683C16.4591 3.26623 16.4446 3.31224 16.4202 3.35158Z" fill="#BA68C8"/>
<path opacity="0.1" d="M0.185638 16.5373C0.191338 16.5195 0.199798 16.5032 0.210718 16.4888C0.210718 16.4888 2.63253 13.0519 4.98547 10.9772C6.56099 9.57615 13.727 3.54022 14.7225 2.84705L15.2049 3.5888C15.2049 3.5888 0.177868 16.7091 0.341548 16.9152C0.307888 16.8974 0.276968 16.8733 0.250678 16.8444C0.224388 16.8154 0.203278 16.7822 0.188678 16.7468C0.174068 16.7114 0.166268 16.6746 0.165738 16.6385C0.165218 16.6025 0.171988 16.5681 0.185638 16.5373Z" fill="black"/>
<path d="M16.1957 2.62764C16.2567 2.40971 16.5883 1.23017 17.3534 0.834839C17.444 0.932989 17.5489 1.01606 17.6626 1.07982C18.0996 1.33014 18.326 1.04917 18.6705 1.20566C19.0149 1.36216 18.9221 1.98235 18.9222 1.98675C18.7293 2.49027 18.3771 2.89213 17.9132 3.13772C17.4711 3.3589 16.9533 3.43315 16.4205 3.35179L15.5131 2.30472L16.1957 2.62764Z" fill="#455A64"/>
<path d="M16.5683 0.226074C16.9839 0.249514 17.0932 0.556324 17.3533 0.834974C16.5818 1.23586 16.2566 2.40986 16.1956 2.62779L15.5176 2.32314C15.5412 2.18676 15.5645 2.0416 15.5964 1.88466L15.6181 1.7677C15.6362 1.68958 15.6585 1.60777 15.6831 1.52851C15.7195 1.39986 15.765 1.2755 15.8192 1.15627C15.8567 1.07325 15.9006 0.990554 15.951 0.908174C16.0621 0.729324 16.1933 0.566294 16.3425 0.421724C16.4097 0.347594 16.4854 0.282054 16.5683 0.226074Z" fill="#37474F"/>
<path d="M16.5723 0.222502C16.6106 0.189282 16.6622 0.171342 16.7094 0.148302L16.72 0.139082C16.7477 0.115082 16.7909 0.108922 16.8274 0.0951116C16.8639 0.0813116 16.8487 0.0766616 16.8593 0.0674316C16.8668 0.0602216 16.8746 0.0534517 16.8828 0.0471317C16.9029 0.0395917 16.9238 0.0334416 16.9452 0.0287416C16.969 0.0210616 16.9934 0.0147817 17.0183 0.00992172C17.0766 -0.000372283 17.1348 -0.0106673 17.1931 -0.0165693C17.2505 -0.0244933 17.3089 -0.0289383 17.368 -0.0298813C17.4263 -0.0313903 17.4826 -0.0310483 17.541 -0.0281633C17.9029 -0.00565032 18.2695 0.0886216 18.6208 0.249492L18.6928 0.285232L18.7082 0.303062L18.7912 0.347152C18.96 0.443602 19.1232 0.552792 19.2792 0.673642C19.3494 0.728802 19.413 0.780712 19.4702 0.833772C19.5274 0.886832 19.5801 0.934802 19.6263 0.979512L19.6859 1.04829L19.8272 1.21134L19.9001 1.29541C19.7366 1.28365 19.579 1.30939 19.4387 1.37079C19.2984 1.43218 19.1789 1.5277 19.0889 1.65043C19.0099 1.74588 18.9429 1.85181 18.8891 1.96636C18.8891 1.96636 18.9774 1.33668 18.6373 1.18528C18.2973 1.03388 18.0664 1.30976 17.6295 1.05944C17.5157 0.995672 17.4109 0.912612 17.3202 0.814452C17.0601 0.535802 16.9575 0.236642 16.5352 0.205552L16.5723 0.222502Z" fill="#FF8B49"/>
<path opacity="0.1" d="M19.9332 1.31578C19.2769 0.85331 18.5156 0.63619 17.8031 0.70827C17.6422 0.72129 17.49 0.764131 17.3533 0.834821C17.0932 0.556171 16.9906 0.25701 16.5683 0.22592C16.6066 0.19269 16.6582 0.17476 16.7054 0.15173L16.716 0.1425C16.7437 0.1185 16.7869 0.11234 16.8234 0.0985407C16.8599 0.0847307 16.8447 0.0800808 16.8553 0.0708508C16.8628 0.0636508 16.8706 0.0568707 16.8788 0.0505507C16.8989 0.0430007 16.9198 0.0368607 16.9412 0.0321607C16.965 0.0244807 16.9894 0.0182008 17.0144 0.0133408C17.0726 0.00305074 17.1308 -0.00724932 17.1891 -0.0131513C17.2465 -0.0210753 17.3049 -0.0255203 17.364 -0.0264633C17.4224 -0.0279723 17.4786 -0.0276303 17.537 -0.0247453C17.8989 -0.00223231 18.2655 0.0920408 18.6168 0.25291L18.6888 0.28865L18.7042 0.30649L18.7872 0.35058C18.956 0.44703 19.1192 0.556211 19.2752 0.67706C19.3454 0.73222 19.409 0.78414 19.4662 0.8372C19.5234 0.89026 19.5761 0.938221 19.6223 0.982931L19.682 1.05171L19.8232 1.21476L19.8961 1.29883L19.9332 1.31578Z" fill="black"/>
<path d="M15.5065 2.31027C15.5486 2.28937 15.5966 2.27958 15.6469 2.28164C15.6971 2.2837 15.7483 2.29755 15.7965 2.32215C15.9445 2.39528 16.0796 2.50041 16.1912 2.62914C16.3027 2.75786 16.3876 2.90661 16.4389 3.06351C16.4575 3.11523 16.4649 3.16859 16.4606 3.21951C16.4562 3.27044 16.4403 3.31758 16.4139 3.35735C16.1194 3.70617 15.7886 4.07758 15.4387 4.46561C15.4774 4.41704 15.5018 4.35703 15.5097 4.291C15.5176 4.22497 15.5087 4.155 15.4839 4.08741C15.4193 3.88886 15.3122 3.70057 15.171 3.53772C15.0299 3.37488 14.8588 3.24202 14.6714 3.14988C14.6081 3.11744 14.5406 3.09992 14.4747 3.09879C14.4089 3.09766 14.3465 3.11295 14.2929 3.14339C14.7543 2.82379 15.1987 2.51456 15.5065 2.31027Z" fill="#EBEBEB"/>
<path d="M15.209 3.58521C15.0621 3.40256 14.8766 3.25535 14.6716 3.15875C14.6082 3.12631 14.5408 3.10878 14.4749 3.10765C14.4091 3.10652 14.3467 3.12182 14.2931 3.15226C14.7588 2.82896 15.2095 2.51419 15.5173 2.30991C15.5595 2.28901 15.6075 2.27922 15.6577 2.28127C15.708 2.28333 15.7591 2.29718 15.8073 2.32178C15.9584 2.39009 16.096 2.49547 16.2063 2.62729L15.2153 3.57089L15.209 3.58521Z" fill="#E0E0E0"/>
</g>
</g>
<defs>
<linearGradient id="paint0_linear_837_86" x1="9.17396" y1="16.5527" x2="11.2985" y2="14.2436" gradientUnits="userSpaceOnUse">
<stop stop-color="#E55036"/>
<stop offset="0.42" stop-color="#5B1B5C"/>
<stop offset="0.98" stop-color="#2A164A"/>
</linearGradient>
<linearGradient id="paint1_linear_837_86" x1="14.9442" y1="17.985" x2="12.8562" y2="20.1204" gradientUnits="userSpaceOnUse">
<stop offset="0.03" stop-color="#9A007E"/>
<stop offset="0.38" stop-color="#CD0558"/>
<stop offset="1" stop-color="#FF792E"/>
</linearGradient>
<radialGradient id="paint2_radial_837_86" cx="0" cy="0" r="1" gradientUnits="userSpaceOnUse" gradientTransform="translate(18.8521 23.9819) rotate(-135.42) scale(0.374499 0.170269)">
<stop stop-color="#2F3460"/>
<stop offset="0.64" stop-color="#391B5C"/>
<stop offset="0.98" stop-color="#2A164A"/>
</radialGradient>
<linearGradient id="paint3_linear_837_86" x1="10.2386" y1="16.2892" x2="1.42785" y2="7.48329" gradientUnits="userSpaceOnUse">
<stop offset="0.01" stop-color="#6052A9"/>
<stop offset="0.06" stop-color="#594C9C"/>
<stop offset="0.29" stop-color="#393165"/>
<stop offset="0.51" stop-color="#211C39"/>
<stop offset="0.71" stop-color="#0F0D1A"/>
<stop offset="0.87" stop-color="#040307"/>
<stop offset="0.99"/>
</linearGradient>
<linearGradient id="paint4_linear_837_86" x1="4.07264" y1="7.9717" x2="2.60665" y2="9.471" gradientUnits="userSpaceOnUse">
<stop offset="0.43" stop-color="#D8D9FF"/>
<stop offset="0.84" stop-color="#80618E"/>
<stop offset="0.96" stop-color="#E3DCE6"/>
</linearGradient>
<linearGradient id="paint5_linear_837_86" x1="18.9992" y1="22.1561" x2="17.1228" y2="24.0752" gradientUnits="userSpaceOnUse">
<stop offset="0.01"/>
<stop offset="0.13" stop-color="#040307"/>
<stop offset="0.29" stop-color="#0F0D1A"/>
<stop offset="0.49" stop-color="#211C39"/>
<stop offset="0.71" stop-color="#393165"/>
<stop offset="0.94" stop-color="#594C9C"/>
<stop offset="0.99" stop-color="#6052A9"/>
</linearGradient>
<linearGradient id="paint6_linear_837_86" x1="13.9323" y1="20.0398" x2="13.523" y2="20.4584" gradientUnits="userSpaceOnUse">
<stop offset="0.03" stop-color="#930045"/>
<stop offset="1" stop-color="#6B004D"/>
</linearGradient>
<clipPath id="clip0_837_86">
<rect width="20" height="25" fill="white"/>
</clipPath>
</defs>
</svg>
