<svg width="44" height="27" viewBox="0 0 44 27" fill="none" xmlns="http://www.w3.org/2000/svg">
<g clip-path="url(#clip0_837_34)">
<mask id="mask0_837_34" style="mask-type:luminance" maskUnits="userSpaceOnUse" x="0" y="0" width="44" height="27">
<path d="M44 0H0V27H44V0Z" fill="white"/>
</mask>
<g mask="url(#mask0_837_34)">
<path fill-rule="evenodd" clip-rule="evenodd" d="M2.30658 7.46114C4.40149 10.5066 8.1445 16.8392 8.1445 16.8392L8.3248 16.7233L12.6394 23.3152L12.4542 23.4287L12.6949 23.7966L14.354 24.648L14.5942 24.495L14.8345 24.3419L14.7267 22.5005L14.4859 22.1326L14.3049 22.2466L9.9958 15.6559L10.1761 15.54C10.1761 15.54 5.86466 9.57481 3.91467 6.43396C3.91467 6.43396 3.23286 6.464 2.93893 6.68556C2.61515 6.85864 2.30658 7.46114 2.30658 7.46114Z" fill="url(#paint0_linear_837_34)"/>
<path fill-rule="evenodd" clip-rule="evenodd" d="M12.4542 23.4287L12.2765 23.4085C12.2765 23.4085 10.1607 19.5922 8.04492 16.9441C8.04492 16.9441 8.77012 16.0873 10.2674 15.4431C10.2674 15.4431 12.4068 19.1588 14.5681 22.0135L14.4882 22.1247C14.4882 22.1247 13.0913 23.1492 12.4542 23.4287Z" fill="url(#paint1_linear_837_34)"/>
<path fill-rule="evenodd" clip-rule="evenodd" d="M14.4254 24.6089L14.6548 24.9595C14.6853 24.9987 14.7301 25.0245 14.7794 25.0314C14.8286 25.0384 14.8785 25.0258 14.9182 24.9964C14.9614 24.9726 14.9934 24.9328 15.0073 24.8857C15.0212 24.8385 15.016 24.7876 14.9927 24.7439L14.7645 24.3909L14.4254 24.6089Z" fill="url(#paint2_radial_837_34)"/>
<g style="mix-blend-mode:multiply" opacity="0.5">
<path fill-rule="evenodd" clip-rule="evenodd" d="M8.08197 16.7291C8.08197 16.7291 8.94677 15.7311 9.99487 15.2826L10.1442 15.5026C10.1442 15.5026 8.83627 16.0054 8.15177 16.8368L8.08197 16.7291Z" fill="#614881"/>
</g>
<path style="mix-blend-mode:screen" opacity="0.5" fill-rule="evenodd" clip-rule="evenodd" d="M2.50531 7.13189C2.65436 6.93556 8.16482 15.915 8.31152 16.1279C8.45822 16.3407 8.18202 16.6139 8.18202 16.6139C8.43112 16.3634 8.69452 16.1273 8.97082 15.9066C8.97082 15.9066 8.58212 16.0892 8.45322 15.9788C8.32442 15.8684 2.80794 7.20389 2.77455 7.06421C2.74115 6.92453 2.87483 6.72241 2.87483 6.72241C2.73423 6.84235 2.61003 6.97999 2.50531 7.13189Z" fill="url(#paint3_linear_837_34)"/>
<path fill-rule="evenodd" clip-rule="evenodd" d="M3.3072 8.96846C3.7408 8.50263 4.28658 8.15366 4.8943 7.95369L4.83409 7.86096C4.20876 8.02072 3.65148 8.37142 3.2406 8.86375L3.3072 8.96846Z" fill="url(#paint4_linear_837_34)"/>
<path style="mix-blend-mode:screen" opacity="0.5" fill-rule="evenodd" clip-rule="evenodd" d="M12.7 23.799C13.497 23.5829 14.2062 23.1299 14.7329 22.5005L14.8407 24.342L14.3608 24.6468L12.7 23.799Z" fill="url(#paint5_linear_837_34)"/>
<path fill-rule="evenodd" clip-rule="evenodd" d="M12.1145 22.7885C12.2891 22.7467 12.454 22.6732 12.601 22.5717L9.67811 18.0979L9.31201 18.3315C9.31201 18.3315 10.923 20.9265 12.1145 22.7885Z" fill="url(#paint6_linear_837_34)"/>
<path fill-rule="evenodd" clip-rule="evenodd" d="M12.2083 22.763L10.8411 20.676L10.9041 20.5433L10.7536 20.542L9.3595 18.305L9.6758 18.103L12.601 22.5719C12.4859 22.6633 12.3519 22.7285 12.2083 22.763Z" fill="#9F2E45"/>
<g style="mix-blend-mode:multiply">
<path fill-rule="evenodd" clip-rule="evenodd" d="M9.67578 18.103L11.0402 20.3453L10.7548 20.5426L10.9028 20.5427L10.841 20.676L11.146 20.4821L12.601 22.5719L9.67578 18.103Z" fill="#614881"/>
</g>
<path d="M16.4202 3.3517C16.4202 3.3517 8.92149 10.6217 6.52205 12.759C4.68967 14.3359 2.70174 15.7259 0.579259 16.9142L0.56861 16.9234C0.52286 16.9446 0.4691 16.9489 0.41499 16.9359C0.36087 16.9229 0.30916 16.8932 0.26721 16.851C0.22526 16.8087 0.1952 16.7562 0.18132 16.7008C0.16744 16.6454 0.170439 16.59 0.189889 16.5424C0.195599 16.5246 0.204049 16.5082 0.214979 16.4939C0.214979 16.4939 2.63678 13.0569 4.98972 10.9822C7.34269 8.9075 15.5087 2.31271 15.5087 2.31271C15.5508 2.29181 15.5988 2.28202 15.6491 2.28408C15.6993 2.28614 15.7505 2.29999 15.7987 2.32459C15.9467 2.39772 16.0818 2.50285 16.1934 2.63157C16.3049 2.7603 16.3898 2.90905 16.4411 3.06594C16.459 3.11599 16.4664 3.16755 16.4627 3.21695C16.4591 3.26635 16.4446 3.31236 16.4202 3.3517Z" fill="#BA68C8"/>
<path opacity="0.1" d="M0.185638 16.5373C0.191338 16.5195 0.199798 16.5032 0.210718 16.4888C0.210718 16.4888 2.63253 13.0519 4.98547 10.9772C6.56099 9.57615 13.727 3.54022 14.7225 2.84705L15.2049 3.5888C15.2049 3.5888 0.177868 16.7091 0.341548 16.9152C0.307888 16.8974 0.276968 16.8733 0.250678 16.8444C0.224388 16.8154 0.203278 16.7822 0.188678 16.7468C0.174068 16.7114 0.166268 16.6746 0.165738 16.6385C0.165218 16.6025 0.171988 16.5681 0.185638 16.5373Z" fill="black"/>
<path d="M16.1957 2.62764C16.2567 2.40971 16.5883 1.23017 17.3534 0.834839C17.444 0.932989 17.5489 1.01606 17.6626 1.07982C18.0996 1.33014 18.326 1.04917 18.6705 1.20566C19.0149 1.36216 18.9221 1.98235 18.9222 1.98675C18.7293 2.49027 18.3771 2.89213 17.9132 3.13772C17.4711 3.3589 16.9533 3.43315 16.4205 3.35179L15.5131 2.30472L16.1957 2.62764Z" fill="#455A64"/>
<path d="M16.5683 0.226074C16.9839 0.249514 17.0932 0.556324 17.3533 0.834974C16.5818 1.23586 16.2566 2.40986 16.1956 2.62779L15.5176 2.32314C15.5412 2.18676 15.5645 2.0416 15.5964 1.88466L15.6181 1.7677C15.6362 1.68958 15.6585 1.60777 15.6831 1.52851C15.7195 1.39986 15.765 1.2755 15.8192 1.15627C15.8567 1.07325 15.9006 0.990554 15.951 0.908174C16.0621 0.729324 16.1933 0.566294 16.3425 0.421724C16.4097 0.347594 16.4854 0.282054 16.5683 0.226074Z" fill="#37474F"/>
<path d="M16.5723 0.222502C16.6106 0.189282 16.6622 0.171342 16.7094 0.148302L16.72 0.139082C16.7477 0.115082 16.7909 0.108922 16.8274 0.0951116C16.8639 0.0813116 16.8487 0.0766616 16.8593 0.0674316C16.8668 0.0602216 16.8746 0.0534517 16.8828 0.0471317C16.9029 0.0395917 16.9238 0.0334416 16.9452 0.0287416C16.969 0.0210616 16.9934 0.0147817 17.0183 0.00992172C17.0766 -0.000372283 17.1348 -0.0106673 17.1931 -0.0165693C17.2505 -0.0244933 17.3089 -0.0289383 17.368 -0.0298813C17.4263 -0.0313903 17.4826 -0.0310483 17.541 -0.0281633C17.9029 -0.00565032 18.2695 0.0886216 18.6208 0.249492L18.6928 0.285232L18.7082 0.303062L18.7912 0.347152C18.96 0.443602 19.1232 0.552792 19.2792 0.673642C19.3494 0.728802 19.413 0.780712 19.4702 0.833772C19.5274 0.886832 19.5801 0.934802 19.6263 0.979512L19.6859 1.04829L19.8272 1.21134L19.9001 1.29541C19.7366 1.28365 19.579 1.30939 19.4387 1.37079C19.2984 1.43218 19.1789 1.5277 19.0889 1.65043C19.0099 1.74588 18.9429 1.85181 18.8891 1.96636C18.8891 1.96636 18.9774 1.33668 18.6373 1.18528C18.2973 1.03388 18.0664 1.30976 17.6295 1.05944C17.5157 0.995672 17.4109 0.912612 17.3202 0.814452C17.0601 0.535802 16.9575 0.236642 16.5352 0.205552L16.5723 0.222502Z" fill="#FF8B49"/>
<path opacity="0.1" d="M19.9332 1.31578C19.2769 0.85331 18.5156 0.63619 17.8031 0.70827C17.6422 0.72129 17.49 0.764131 17.3533 0.834821C17.0932 0.556171 16.9906 0.25701 16.5683 0.22592C16.6066 0.19269 16.6582 0.17476 16.7054 0.15173L16.716 0.1425C16.7437 0.1185 16.7869 0.11234 16.8234 0.0985407C16.8599 0.0847307 16.8447 0.0800808 16.8553 0.0708508C16.8628 0.0636508 16.8706 0.0568707 16.8788 0.0505507C16.8989 0.0430007 16.9198 0.0368607 16.9412 0.0321607C16.965 0.0244807 16.9894 0.0182008 17.0144 0.0133408C17.0726 0.00305074 17.1308 -0.00724932 17.1891 -0.0131513C17.2465 -0.0210753 17.3049 -0.0255203 17.364 -0.0264633C17.4224 -0.0279723 17.4786 -0.0276303 17.537 -0.0247453C17.8989 -0.00223232 18.2655 0.0920408 18.6168 0.25291L18.6888 0.28865L18.7042 0.30649L18.7872 0.35058C18.956 0.44703 19.1192 0.556211 19.2752 0.67706C19.3454 0.73222 19.409 0.78414 19.4662 0.8372C19.5234 0.89026 19.5761 0.938221 19.6223 0.982931L19.682 1.05171L19.8232 1.21476L19.8961 1.29883L19.9332 1.31578Z" fill="black"/>
<path d="M15.5065 2.31027C15.5486 2.28937 15.5966 2.27958 15.6469 2.28164C15.6971 2.2837 15.7483 2.29755 15.7965 2.32215C15.9445 2.39528 16.0796 2.50041 16.1912 2.62914C16.3027 2.75786 16.3876 2.90661 16.4389 3.06351C16.4575 3.11523 16.4649 3.16859 16.4606 3.21951C16.4562 3.27044 16.4403 3.31758 16.4139 3.35735C16.1194 3.70617 15.7886 4.07758 15.4387 4.46561C15.4774 4.41704 15.5018 4.35703 15.5097 4.291C15.5176 4.22497 15.5087 4.155 15.4839 4.08741C15.4193 3.88886 15.3122 3.70057 15.171 3.53772C15.0299 3.37488 14.8588 3.24202 14.6714 3.14988C14.6081 3.11744 14.5406 3.09992 14.4747 3.09879C14.4089 3.09766 14.3465 3.11295 14.2929 3.14339C14.7543 2.82379 15.1987 2.51456 15.5065 2.31027Z" fill="#EBEBEB"/>
<path d="M15.209 3.58521C15.0621 3.40256 14.8766 3.25535 14.6716 3.15875C14.6082 3.12631 14.5408 3.10878 14.4749 3.10765C14.4091 3.10652 14.3467 3.12182 14.2931 3.15226C14.7588 2.82896 15.2095 2.51419 15.5173 2.30991C15.5595 2.28901 15.6075 2.27922 15.6577 2.28127C15.708 2.28333 15.7591 2.29718 15.8073 2.32178C15.9584 2.39009 16.096 2.49547 16.2063 2.62729L15.2153 3.57089L15.209 3.58521Z" fill="#E0E0E0"/>
<path fill-rule="evenodd" clip-rule="evenodd" d="M31.246 3.45786C31.7614 2.94243 32.5971 2.94243 33.1126 3.45786L43.5487 13.894L33.1126 24.3302C32.5971 24.8457 31.7614 24.8457 31.246 24.3302C30.7306 23.8148 30.7306 22.9791 31.246 22.4637L39.8156 13.894L31.246 5.32441C30.7306 4.80898 30.7306 3.97329 31.246 3.45786Z" fill="#3C0792"/>
<path d="M29.4723 2.12471L24.6492 0.927165C24.1132 0.794078 23.5708 1.12071 23.4377 1.65672L17.9914 23.592C17.8583 24.128 18.1849 24.6704 18.7209 24.8035L23.544 26.001C24.0801 26.1341 24.6225 25.8075 24.7556 25.2715L30.2019 3.33621C30.335 2.8002 30.0084 2.25779 29.4723 2.12471Z" fill="#3C0792"/>
<path d="M27.6281 1.26401L23.3545 0.202922C22.8185 0.069835 22.2761 0.396469 22.143 0.932478L16.4023 24.053C16.2693 24.5891 16.5959 25.1315 17.1319 25.2646L21.4054 26.3256C21.9415 26.4587 22.4839 26.1321 22.617 25.5961L28.3576 2.47552C28.4907 1.93951 28.1641 1.3971 27.6281 1.26401Z" fill="#FFE8DE"/>
<path d="M27.6737 2.57318L22.702 1.33875L21.9432 4.39504L26.9149 5.62947L27.6737 2.57318Z" fill="#FFD88D"/>
<path d="M26.7631 6.24066L21.7914 5.00623L21.0325 8.06252L26.0042 9.29695L26.7631 6.24066Z" fill="#FFC4BA"/>
<path d="M25.8525 9.90826L20.8808 8.67383L20.1219 11.7301L25.0936 12.9646L25.8525 9.90826Z" fill="#FF928D"/>
<path d="M24.9418 13.5757L19.9701 12.3413L19.2112 15.3976L24.1829 16.632L24.9418 13.5757Z" fill="#FF665B"/>
<path d="M24.0313 17.2433L19.0596 16.0089L18.3007 19.0652L23.2724 20.2996L24.0313 17.2433Z" fill="#D9005B"/>
<path d="M23.1206 20.9109L18.1489 19.6765L17.3901 22.7328L22.3618 23.9672L23.1206 20.9109Z" fill="#88005B"/>
<path fill-rule="evenodd" clip-rule="evenodd" d="M16.7394 23.7456C16.7377 23.8777 16.7693 24.004 16.8302 24.1084C16.8912 24.2129 16.9787 24.2909 17.0817 24.3325C17.1847 24.3742 17.2987 24.3776 17.4091 24.3423C17.5195 24.3071 17.6214 24.2348 17.702 24.1346C17.7825 24.0344 17.8381 23.9107 17.8617 23.7793C17.8853 23.6478 17.8759 23.5145 17.8345 23.3961C17.7932 23.2777 17.7219 23.1796 17.6295 23.1142C17.5372 23.0488 17.428 23.019 17.3158 23.0286C17.2413 23.035 17.1672 23.0586 17.0979 23.098C17.0285 23.1375 16.9653 23.1921 16.9118 23.2587C16.8582 23.3253 16.8155 23.4026 16.7859 23.4861C16.7563 23.5697 16.7405 23.6578 16.7394 23.7456ZM17.5963 23.673C17.5947 23.7406 17.5761 23.8078 17.5429 23.8662C17.5097 23.9246 17.4633 23.9715 17.4098 24.0011C17.3562 24.0306 17.2977 24.0414 17.2419 24.0321C17.186 24.0228 17.1352 23.9938 17.0959 23.9489C17.0566 23.9039 17.0306 23.8449 17.0211 23.7794C17.0116 23.7139 17.0192 23.6449 17.0427 23.581C17.0663 23.5171 17.1049 23.4612 17.1535 23.4205C17.2022 23.3798 17.2587 23.356 17.316 23.3522C17.3925 23.3475 17.4648 23.3785 17.5173 23.4386C17.5697 23.4987 17.5981 23.5829 17.5963 23.673Z" fill="url(#paint7_linear_837_34)"/>
<path fill-rule="evenodd" clip-rule="evenodd" d="M16.9772 23.7257C16.9762 23.8024 16.9947 23.8756 17.0301 23.9362C17.0655 23.9968 17.1164 24.042 17.1762 24.0661C17.2361 24.0902 17.3022 24.0921 17.3663 24.0716C17.4304 24.0511 17.4895 24.009 17.5363 23.9508C17.583 23.8925 17.6152 23.8207 17.6288 23.7444C17.6425 23.6681 17.6369 23.5907 17.6129 23.522C17.5888 23.4533 17.5473 23.3964 17.4937 23.3585C17.44 23.3206 17.3766 23.3034 17.3115 23.309C17.2682 23.3128 17.2252 23.3265 17.185 23.3495C17.1447 23.3725 17.1081 23.4042 17.077 23.4429C17.046 23.4816 17.0212 23.5265 17.004 23.575C16.9869 23.6235 16.9778 23.6747 16.9772 23.7257ZM17.596 23.6731C17.5944 23.7407 17.5758 23.8079 17.5426 23.8663C17.5094 23.9247 17.463 23.9716 17.4094 24.0012C17.3559 24.0307 17.2974 24.0415 17.2416 24.0322C17.1857 24.0229 17.1349 23.9939 17.0956 23.949C17.0563 23.904 17.0302 23.845 17.0208 23.7795C17.0113 23.714 17.0189 23.645 17.0424 23.5811C17.066 23.5172 17.1046 23.4613 17.1532 23.4206C17.2019 23.3799 17.2584 23.3561 17.3157 23.3523C17.3922 23.3476 17.4645 23.3786 17.517 23.4387C17.5694 23.4988 17.5978 23.583 17.596 23.6731Z" fill="url(#paint8_linear_837_34)"/>
<path d="M12.297 12.3872C12.297 12.1415 12.2427 11.9561 12.134 11.8308C12.0254 11.7056 11.8572 11.643 11.6296 11.643C11.4744 11.643 11.3373 11.6743 11.2183 11.7369C11.0993 11.7947 11.0062 11.8814 10.939 11.997C10.8717 12.1078 10.8381 12.2379 10.8381 12.3872V14.4103H10V11.0866H10.8381V11.5996C10.9519 11.4021 11.0968 11.2552 11.2726 11.1589C11.4537 11.0625 11.6684 11.0144 11.9167 11.0144C12.3203 11.0144 12.6281 11.13 12.8402 11.3612C13.0523 11.5876 13.1583 11.9007 13.1583 12.3005V14.4103H12.297V12.3872Z" fill="url(#paint9_linear_837_34)"/>
<path d="M15.0434 16H14.1976V11.0867H15.0434V16ZM18 12.7486C18 13.1146 17.9198 13.4302 17.7594 13.6951C17.5991 13.9552 17.387 14.1551 17.1231 14.2948C16.8593 14.4297 16.5722 14.4971 16.2617 14.4971C15.9565 14.4971 15.6901 14.4273 15.4625 14.2876C15.24 14.1431 15.0667 13.9408 14.9425 13.6806C14.8236 13.4157 14.7641 13.105 14.7641 12.7486C14.7641 12.3873 14.8236 12.0766 14.9425 11.8165C15.0667 11.5564 15.24 11.3565 15.4625 11.2168C15.6901 11.0723 15.9565 11 16.2617 11C16.5722 11 16.8593 11.0698 17.1231 11.2095C17.387 11.3444 17.5991 11.5419 17.7594 11.802C17.9198 12.0621 18 12.3776 18 12.7486ZM17.1309 12.7486C17.1309 12.527 17.0817 12.3391 16.9834 12.185C16.8851 12.026 16.7532 11.908 16.5877 11.8309C16.4273 11.749 16.2488 11.7081 16.0522 11.7081C15.8919 11.7081 15.7341 11.749 15.5789 11.8309C15.4237 11.908 15.2943 12.0236 15.1909 12.1777C15.0926 12.3319 15.0434 12.5222 15.0434 12.7486C15.0434 12.975 15.0926 13.1652 15.1909 13.3194C15.2943 13.4735 15.4237 13.5915 15.5789 13.6734C15.7341 13.7505 15.8919 13.789 16.0522 13.789C16.2488 13.789 16.4273 13.7505 16.5877 13.6734C16.7532 13.5915 16.8851 13.4735 16.9834 13.3194C17.0817 13.1604 17.1309 12.9701 17.1309 12.7486Z" fill="url(#paint10_linear_837_34)"/>
<path d="M33.0083 13.2159C33.0083 13.0439 32.9703 12.8939 32.8943 12.7659C32.8223 12.6339 32.7223 12.5319 32.5943 12.4599C32.4663 12.3839 32.3223 12.3459 32.1623 12.3459C31.9983 12.3459 31.8523 12.3839 31.7243 12.4599C31.5963 12.5319 31.4943 12.6339 31.4183 12.7659C31.3463 12.8939 31.3103 13.0439 31.3103 13.2159C31.3103 13.3879 31.3463 13.5399 31.4183 13.6719C31.4943 13.8039 31.5963 13.9079 31.7243 13.9839C31.8523 14.0599 31.9983 14.0979 32.1623 14.0979C32.3223 14.0979 32.4663 14.0599 32.5943 13.9839C32.7223 13.9079 32.8223 13.8039 32.8943 13.6719C32.9703 13.5399 33.0083 13.3879 33.0083 13.2159ZM32.0123 15.9939H31.1123L32.4443 14.3439L32.5523 14.3259C32.4563 14.4299 32.3563 14.4979 32.2523 14.5299C32.1483 14.5619 32.0263 14.5779 31.8863 14.5779C31.7183 14.5779 31.5583 14.5459 31.4063 14.4819C31.2543 14.4179 31.1183 14.3259 30.9983 14.2059C30.8823 14.0819 30.7903 13.9359 30.7223 13.7679C30.6543 13.5999 30.6203 13.4159 30.6203 13.2159C30.6203 12.9039 30.6883 12.6379 30.8243 12.4179C30.9643 12.1939 31.1503 12.0239 31.3823 11.9079C31.6143 11.7879 31.8743 11.7279 32.1623 11.7279C32.4503 11.7279 32.7103 11.7879 32.9423 11.9079C33.1743 12.0239 33.3583 12.1939 33.4943 12.4179C33.6303 12.6379 33.6983 12.9039 33.6983 13.2159C33.6983 13.4119 33.6643 13.5919 33.5963 13.7559C33.5323 13.9199 33.4483 14.0699 33.3443 14.2059L32.0123 15.9939Z" fill="#3C0792"/>
<path d="M36.688 13.2159C36.688 13.0439 36.65 12.8939 36.574 12.7659C36.502 12.6339 36.402 12.5319 36.274 12.4599C36.146 12.3839 36.002 12.3459 35.842 12.3459C35.678 12.3459 35.532 12.3839 35.404 12.4599C35.276 12.5319 35.174 12.6339 35.098 12.7659C35.026 12.8939 34.99 13.0439 34.99 13.2159C34.99 13.3879 35.026 13.5399 35.098 13.6719C35.174 13.8039 35.276 13.9079 35.404 13.9839C35.532 14.0599 35.678 14.0979 35.842 14.0979C36.002 14.0979 36.146 14.0599 36.274 13.9839C36.402 13.9079 36.502 13.8039 36.574 13.6719C36.65 13.5399 36.688 13.3879 36.688 13.2159ZM35.692 15.9939H34.792L36.124 14.3439L36.232 14.3259C36.136 14.4299 36.036 14.4979 35.932 14.5299C35.828 14.5619 35.706 14.5779 35.566 14.5779C35.398 14.5779 35.238 14.5459 35.086 14.4819C34.934 14.4179 34.798 14.3259 34.678 14.2059C34.562 14.0819 34.47 13.9359 34.402 13.7679C34.334 13.5999 34.3 13.4159 34.3 13.2159C34.3 12.9039 34.368 12.6379 34.504 12.4179C34.644 12.1939 34.83 12.0239 35.062 11.9079C35.294 11.7879 35.554 11.7279 35.842 11.7279C36.13 11.7279 36.39 11.7879 36.622 11.9079C36.854 12.0239 37.038 12.1939 37.174 12.4179C37.31 12.6379 37.378 12.9039 37.378 13.2159C37.378 13.4119 37.344 13.5919 37.276 13.7559C37.212 13.9199 37.128 14.0699 37.024 14.2059L35.692 15.9939Z" fill="#3C0792"/>
<path d="M24.3597 2.03809L24.8251 2.15552L24.1401 4.87043L23.6746 4.753L24.3597 2.03809ZM24.5512 4.97417L23.9578 4.82444L24.0664 4.39393L24.6482 4.54072C24.7826 4.57465 24.9116 4.58657 25.0352 4.57649C25.1587 4.56642 25.2717 4.53303 25.374 4.47634C25.4789 4.4203 25.5693 4.33998 25.6452 4.23537C25.7237 4.13141 25.7821 4.00316 25.8206 3.8506C25.8591 3.69805 25.8685 3.5574 25.8487 3.42865C25.8315 3.30055 25.7901 3.18696 25.7243 3.08786C25.6612 2.98941 25.5776 2.90644 25.4736 2.83895C25.3696 2.77146 25.2504 2.72075 25.1159 2.68683L24.5342 2.54003L24.6428 2.10953L25.2362 2.25926C25.5129 2.32907 25.7416 2.44728 25.9223 2.61389C26.1037 2.77792 26.2268 2.97674 26.2916 3.21037C26.3596 3.44206 26.3591 3.69494 26.2899 3.96902C26.2208 4.24309 26.101 4.46726 25.9305 4.64151C25.7632 4.81383 25.5605 4.93045 25.3224 4.99137C25.0849 5.04971 24.8278 5.04397 24.5512 4.97417Z" fill="#88005B"/>
<path d="M23.9115 8.0916C23.7305 8.04593 23.58 7.96669 23.4599 7.8539C23.3424 7.74175 23.2638 7.6064 23.2241 7.44786C23.1843 7.28932 23.1879 7.11696 23.2349 6.9308C23.2825 6.74204 23.3615 6.58732 23.4717 6.46661C23.5845 6.34656 23.7201 6.26666 23.8787 6.22691C24.0379 6.18457 24.2119 6.18721 24.4006 6.23484C24.5894 6.28247 24.7405 6.35912 24.8541 6.46479C24.9677 6.57046 25.0422 6.70062 25.0774 6.85527C25.1159 7.00799 25.111 7.18002 25.0627 7.37136C25.0575 7.39204 25.0506 7.41369 25.0422 7.43631C25.0363 7.45958 25.0308 7.47606 25.0256 7.48575L23.4587 7.09039L23.5311 6.80338L24.7412 7.10872L24.5682 7.25483C24.5798 7.24127 24.5928 7.22254 24.6071 7.19865C24.6246 7.17281 24.6356 7.15085 24.6402 7.13275C24.6644 7.03708 24.6658 6.94945 24.6447 6.86985C24.6261 6.7909 24.5881 6.72356 24.5306 6.66781C24.4758 6.61271 24.4044 6.57408 24.3165 6.55189C24.2105 6.52514 24.1141 6.52558 24.0274 6.5532C23.9407 6.58082 23.8668 6.6337 23.8058 6.71182C23.7449 6.78995 23.6968 6.89332 23.6616 7.02195C23.629 7.15123 23.6206 7.26602 23.6366 7.3663C23.6532 7.464 23.6931 7.54558 23.7563 7.61104C23.8222 7.67715 23.9094 7.72391 24.018 7.75131C24.1317 7.78002 24.2372 7.78186 24.3342 7.75685C24.4313 7.73184 24.5203 7.67868 24.6014 7.59736L24.9249 7.83576C24.7913 7.97258 24.6408 8.06247 24.4732 8.10544C24.3056 8.1484 24.1183 8.14379 23.9115 8.0916Z" fill="#D9005B"/>
<path d="M22.4059 11.2989C22.4471 11.3753 22.4903 11.4439 22.5354 11.5048C22.5838 11.5638 22.6348 11.6124 22.6884 11.6507C22.7426 11.6864 22.7995 11.7117 22.8589 11.7267C22.9339 11.7457 22.9963 11.7435 23.0462 11.7203C23.0986 11.6978 23.1324 11.6568 23.1474 11.5974C23.1604 11.5456 23.1547 11.4975 23.1302 11.4528C23.1064 11.4055 23.068 11.3614 23.0151 11.3206C22.9628 11.2771 22.9001 11.2311 22.8272 11.1824C22.7548 11.1312 22.6838 11.0747 22.6141 11.0131C22.5476 10.9496 22.4973 10.8764 22.4632 10.7936C22.4317 10.7113 22.4293 10.6172 22.4561 10.5112C22.4835 10.4026 22.5335 10.319 22.606 10.2603C22.6812 10.2022 22.7695 10.1682 22.8711 10.158C22.9759 10.146 23.0826 10.1536 23.1912 10.181C23.2895 10.2058 23.3777 10.2432 23.4558 10.2932C23.5365 10.3438 23.6059 10.4012 23.664 10.4654C23.7221 10.5295 23.7682 10.5975 23.8023 10.6694L23.507 10.8589C23.4651 10.7741 23.4084 10.6993 23.3367 10.6344C23.2651 10.5696 23.1853 10.5261 23.0974 10.5039C23.0379 10.4889 22.9855 10.4894 22.9402 10.5055C22.8949 10.5216 22.866 10.5542 22.8536 10.6033C22.8432 10.6447 22.8505 10.6864 22.8757 10.7285C22.9041 10.7686 22.9434 10.8088 22.9938 10.849C23.0467 10.8899 23.1058 10.9337 23.171 10.9804C23.2595 11.044 23.3392 11.1095 23.4102 11.1769C23.4812 11.2443 23.5328 11.3178 23.565 11.3975C23.5997 11.4777 23.6034 11.5722 23.576 11.6808C23.5336 11.8488 23.4411 11.9699 23.2987 12.044C23.1595 12.1161 22.9916 12.1274 22.7951 12.0778C22.6736 12.0471 22.5657 12.0006 22.4714 11.9383C22.3803 11.8741 22.3035 11.8025 22.241 11.7234C22.1816 11.6425 22.1346 11.5618 22.0999 11.4816L22.4059 11.2989Z" fill="#FF665B"/>
<path d="M21.6293 13.256C21.6476 13.1836 21.6888 13.1293 21.7529 13.0933C21.8196 13.0578 21.8878 13.0489 21.9576 13.0665C22.0326 13.0855 22.0885 13.1257 22.1252 13.1872C22.1645 13.2494 22.1751 13.3167 22.1568 13.3891C22.1392 13.4589 22.098 13.5131 22.0332 13.5518C21.9717 13.5885 21.9034 13.5974 21.8285 13.5785C21.7587 13.5609 21.7028 13.5207 21.6609 13.4578C21.6222 13.3931 21.6117 13.3258 21.6293 13.256ZM21.5084 13.9804L21.9195 14.0841L21.4694 15.8682L21.0582 15.7645L21.5084 13.9804Z" fill="#FF928D"/>
<path d="M20.2775 18.764L20.6525 18.8586C20.6366 18.9316 20.6399 19.0021 20.6626 19.0699C20.6876 19.1384 20.7298 19.1975 20.7893 19.2473C20.8488 19.2971 20.923 19.3332 21.0118 19.3556C21.0912 19.3757 21.1719 19.3761 21.2538 19.357C21.3356 19.3379 21.4085 19.2954 21.4723 19.2295C21.5385 19.1642 21.587 19.0708 21.6176 18.9493L22.0156 17.372L22.3871 17.4658L21.9891 19.043C21.9402 19.237 21.8601 19.387 21.7488 19.4931C21.6399 19.5999 21.5146 19.6677 21.3731 19.6966C21.231 19.7278 21.0864 19.7249 20.9392 19.6878C20.7639 19.6435 20.622 19.5754 20.5135 19.4834C20.4044 19.3938 20.3295 19.2866 20.2889 19.162C20.2506 19.038 20.2468 18.9054 20.2775 18.764ZM20.4785 17.8342C20.5239 17.6543 20.5982 17.5127 20.7013 17.4095C20.805 17.3039 20.9247 17.2334 21.0603 17.1981C21.1983 17.1633 21.3363 17.1633 21.4742 17.1981C21.6097 17.2323 21.7191 17.296 21.8025 17.3891C21.8888 17.4804 21.9456 17.5954 21.9727 17.734C22.0022 17.8732 21.9949 18.0304 21.9506 18.2056C21.907 18.3786 21.8392 18.5193 21.7472 18.6278C21.6575 18.7369 21.5527 18.8124 21.4328 18.8542C21.3158 18.8943 21.1896 18.8972 21.0541 18.863C20.9162 18.8282 20.7948 18.7628 20.6898 18.6667C20.5871 18.5712 20.5152 18.4524 20.474 18.3103C20.4328 18.1681 20.4343 18.0094 20.4785 17.8342ZM20.8711 17.9332C20.844 18.0407 20.8432 18.1375 20.8687 18.2234C20.8942 18.3094 20.9382 18.3814 21.0006 18.4394C21.066 18.4957 21.1419 18.5347 21.2283 18.5565C21.3008 18.5748 21.3767 18.5741 21.4563 18.5544C21.5382 18.5353 21.6107 18.4939 21.674 18.4304C21.7402 18.365 21.7868 18.2786 21.814 18.1712C21.8352 18.087 21.8394 18.0111 21.8267 17.9432C21.8169 17.8737 21.7952 17.8122 21.7614 17.759C21.7282 17.7034 21.6862 17.658 21.6354 17.6228C21.587 17.5882 21.5359 17.5641 21.4821 17.5506C21.3957 17.5288 21.3101 17.5283 21.2253 17.5491C21.1434 17.5682 21.0708 17.6096 21.0076 17.6732C20.9443 17.7367 20.8988 17.8234 20.8711 17.9332Z" fill="#FFC4BA"/>
<path d="M20.422 22.0266C20.4553 21.8947 20.4533 21.7883 20.4159 21.7074C20.3786 21.6265 20.3031 21.5716 20.1893 21.5429C20.1117 21.5234 20.039 21.5229 19.971 21.5415C19.9037 21.5575 19.8454 21.5923 19.7962 21.6459C19.7475 21.6969 19.7131 21.7624 19.6929 21.8426L19.4189 22.9286L19 22.8229L19.4502 21.0388L19.869 21.1445L19.7996 21.4198C19.8832 21.3282 19.9755 21.2676 20.0765 21.2381C20.18 21.2092 20.2938 21.2104 20.4179 21.2417C20.6196 21.2926 20.7578 21.3935 20.8325 21.5443C20.9078 21.6926 20.9184 21.8741 20.8643 22.0887L20.5785 23.2212L20.148 23.1125L20.422 22.0266Z" fill="#FFD88D"/>
</g>
</g>
<defs>
<linearGradient id="paint0_linear_837_34" x1="7.6384" y1="16.3556" x2="9.9491" y2="14.7408" gradientUnits="userSpaceOnUse">
<stop stop-color="#E55036"/>
<stop offset="0.42" stop-color="#5B1B5C"/>
<stop offset="0.98" stop-color="#2A164A"/>
</linearGradient>
<linearGradient id="paint1_linear_837_34" x1="12.4236" y1="18.7285" x2="10.1786" y2="20.1979" gradientUnits="userSpaceOnUse">
<stop offset="0.03" stop-color="#9A007E"/>
<stop offset="0.38" stop-color="#CD0558"/>
<stop offset="1" stop-color="#FF792E"/>
</linearGradient>
<radialGradient id="paint2_radial_837_34" cx="0" cy="0" r="1" gradientUnits="userSpaceOnUse" gradientTransform="translate(14.6918 24.7459) rotate(-122.983) scale(0.33645 0.15297)">
<stop stop-color="#2F3460"/>
<stop offset="0.64" stop-color="#391B5C"/>
<stop offset="0.98" stop-color="#2A164A"/>
</radialGradient>
<linearGradient id="paint3_linear_837_34" x1="8.62342" y1="16.3304" x2="2.59739" y2="6.90011" gradientUnits="userSpaceOnUse">
<stop offset="0.01" stop-color="#6052A9"/>
<stop offset="0.06" stop-color="#594C9C"/>
<stop offset="0.29" stop-color="#393165"/>
<stop offset="0.51" stop-color="#211C39"/>
<stop offset="0.71" stop-color="#0F0D1A"/>
<stop offset="0.87" stop-color="#040307"/>
<stop offset="0.99"/>
</linearGradient>
<linearGradient id="paint4_linear_837_34" x1="4.8232" y1="7.84027" x2="3.24697" y2="8.87199" gradientUnits="userSpaceOnUse">
<stop offset="0.43" stop-color="#D8D9FF"/>
<stop offset="0.84" stop-color="#80618E"/>
<stop offset="0.96" stop-color="#E3DCE6"/>
</linearGradient>
<linearGradient id="paint5_linear_837_34" x1="15.1741" y1="23.1726" x2="13.1566" y2="24.4932" gradientUnits="userSpaceOnUse">
<stop offset="0.01"/>
<stop offset="0.13" stop-color="#040307"/>
<stop offset="0.29" stop-color="#0F0D1A"/>
<stop offset="0.49" stop-color="#211C39"/>
<stop offset="0.71" stop-color="#393165"/>
<stop offset="0.94" stop-color="#594C9C"/>
<stop offset="0.99" stop-color="#6052A9"/>
</linearGradient>
<linearGradient id="paint6_linear_837_34" x1="11.1383" y1="20.3355" x2="10.6982" y2="20.6236" gradientUnits="userSpaceOnUse">
<stop offset="0.03" stop-color="#930045"/>
<stop offset="1" stop-color="#6B004D"/>
</linearGradient>
<linearGradient id="paint7_linear_837_34" x1="17.8738" y1="23.6501" x2="16.7405" y2="23.6338" gradientUnits="userSpaceOnUse">
<stop offset="0.02" stop-color="#B1ACC7"/>
<stop offset="1" stop-color="#CCCAE2"/>
</linearGradient>
<linearGradient id="paint8_linear_837_34" x1="17.6355" y1="23.6702" x2="16.9775" y2="23.6607" gradientUnits="userSpaceOnUse">
<stop stop-color="#A6A3CC"/>
<stop offset="0.98" stop-color="#8C7DAC"/>
</linearGradient>
<linearGradient id="paint9_linear_837_34" x1="18.298" y1="13.3781" x2="9.42937" y2="13.3781" gradientUnits="userSpaceOnUse">
<stop stop-color="#C100C5"/>
<stop offset="1" stop-color="#FF665B"/>
</linearGradient>
<linearGradient id="paint10_linear_837_34" x1="18.298" y1="13.3782" x2="9.42937" y2="13.3782" gradientUnits="userSpaceOnUse">
<stop stop-color="#C100C5"/>
<stop offset="1" stop-color="#FF665B"/>
</linearGradient>
<clipPath id="clip0_837_34">
<rect width="44" height="27" fill="white"/>
</clipPath>
</defs>
</svg>
